<svg width="1834" height="1225" fill="none" xmlns="http://www.w3.org/2000/svg"><path d="M1582.56 747.777V491.381l222.05 128.198-222.05 128.198z" stroke="#EBEBEB"/><ellipse cx="752.212" cy="332.646" rx="5" ry="4.907" transform="rotate(30 752.212 332.646)" fill="#F2F2F2"/><ellipse cx="756.78" cy="874.736" rx="5" ry="4.907" transform="rotate(30 756.78 874.736)" fill="#F2F2F2"/><ellipse cx="1228.53" cy="607.646" rx="5" ry="4.907" transform="rotate(30 1228.53 607.646)" fill="#F2F2F2"/><path d="M1228.09 608.067L756.763 875.1l-4.408-541.699 475.735 274.666zM339.594 75.381v256.396L117.549 203.579 339.594 75.381zm253.248 669.203L318.167 1220.33 43.492 744.584h549.35z" stroke="#EBEBEB"/><circle cx="43" cy="744" r="5" fill="#F2F2F2"/><circle cx="318" cy="1220" r="5" fill="#F2F2F2"/><circle cx="593" cy="744" r="5" fill="#F2F2F2"/></svg>