<svg width="1834" height="1225" viewBox="0 0 1834 1225" fill="none" xmlns="http://www.w3.org/2000/svg">
<path d="M1582.56 747.777L1582.56 491.381L1804.61 619.579L1582.56 747.777Z" stroke="#EBEBEB"/>
<ellipse cx="752.212" cy="332.646" rx="5" ry="4.90735" transform="rotate(30 752.212 332.646)" fill="#F2F2F2"/>
<ellipse cx="756.78" cy="874.736" rx="5" ry="4.90735" transform="rotate(30 756.78 874.736)" fill="#F2F2F2"/>
<ellipse cx="1228.53" cy="607.646" rx="5" ry="4.90735" transform="rotate(30 1228.53 607.646)" fill="#F2F2F2"/>
<path d="M1228.09 608.067L756.763 875.1L752.355 333.401L1228.09 608.067Z" stroke="#EBEBEB"/>
<path d="M339.594 75.3811L339.594 331.777L117.549 203.579L339.594 75.3811Z" stroke="#EBEBEB"/>
<path d="M592.842 744.584L318.167 1220.33L43.4923 744.584L592.842 744.584Z" stroke="#EBEBEB"/>
<circle cx="43" cy="744" r="5" fill="#F2F2F2"/>
<circle cx="318" cy="1220" r="5" fill="#F2F2F2"/>
<circle cx="593" cy="744" r="5" fill="#F2F2F2"/>
</svg>
